HIERARCHY
ROOT SpineBase
{
  OFFSET 0.000000 0.000000 0.000000
  CHANNELS 6 Xposition Yposition Zposition Zrotation Xrotation Yrotation
  JOINT SpineMid
  {
    OFFSET -0.000000 30.405125 0.000000
    CHANNELS 3 Zrotation Xrotation Yrotation
    JOINT SpineShoulder
    {
      OFFSET 0.150311 22.590221 -0.825297
      CHANNELS 3 Zrotation Xrotation Yrotation
      JOINT Neck
      {
        OFFSET 0.107188 7.477963 -0.621932
        CHANNELS 3 Zrotation Xrotation Yrotation
        JOINT Head
        {
          OFFSET 1.288040 14.849408 -2.244600
          CHANNELS 3 Zrotation Xrotation Yrotation
          End Site
          {
            OFFSET 0 0 0
          }
        }
      }
      JOINT ShoulderLeft
      {
        OFFSET -15.214143 -2.726670 -8.227201
        CHANNELS 3 Zrotation Xrotation Yrotation
        JOINT ElbowLeft
        {
          OFFSET -7.166083 -23.912142 -1.263705
          CHANNELS 3 Zrotation Xrotation Yrotation
          JOINT WristLeft
          {
            OFFSET 14.506001 -16.307979 -13.283592
            CHANNELS 3 Zrotation Xrotation Yrotation
            JOINT HandLeft
            {
              OFFSET 4.742808 -1.047530 2.608384
              CHANNELS 3 Zrotation Xrotation Yrotation
              JOINT HandTipLeft
              {
                OFFSET 3.238365 -0.788405 -3.417103
                CHANNELS 3 Zrotation Xrotation Yrotation
                End Site
                {
                  OFFSET 0 0 0
                }
              }
              JOINT ThumbLeft
              {
                OFFSET 1.520823 5.434866 -7.150638
                CHANNELS 3 Zrotation Xrotation Yrotation
                End Site
                {
                  OFFSET 0 0 0
                }
              }
            }
          }
        }
      }
      JOINT ShoulderRight
      {
        OFFSET 16.585259 -3.175236 5.632866
        CHANNELS 3 Zrotation Xrotation Yrotation
        JOINT ElbowRight
        {
          OFFSET 4.786676 -23.706573 4.790374
          CHANNELS 3 Zrotation Xrotation Yrotation
          JOINT WristRight
          {
            OFFSET -0.304332 -6.514555 -25.283211
            CHANNELS 3 Zrotation Xrotation Yrotation
            JOINT HandRight
            {
              OFFSET -3.625468 -2.347487 -8.433862
              CHANNELS 3 Zrotation Xrotation Yrotation
              JOINT HandTipRight
              {
                OFFSET -3.753546 -0.867401 -10.034590
                CHANNELS 3 Zrotation Xrotation Yrotation
                End Site
                {
                  OFFSET 0 0 0
                }
              }
              JOINT ThumbRight
              {
                OFFSET -3.624554 3.413884 -1.693036
                CHANNELS 3 Zrotation Xrotation Yrotation
                End Site
                {
                  OFFSET 0 0 0
                }
              }
            }
          }
        }
      }
    }
  }
  JOINT HipLeft
  {
    OFFSET -5.749489 1.541006 -5.880193
    CHANNELS 3 Zrotation Xrotation Yrotation
    JOINT KneeLeft
    {
      OFFSET -5.095756 -32.332644 -3.521902
      CHANNELS 3 Zrotation Xrotation Yrotation
      JOINT AnkleLeft
      {
        OFFSET -4.752717 -40.865482 6.755075
        CHANNELS 3 Zrotation Xrotation Yrotation
        JOINT FootLeft
        {
          OFFSET 4.768104 -3.647420 -13.216470
          CHANNELS 3 Zrotation Xrotation Yrotation
          End Site
          {
            OFFSET 0 0 0
          }
        }
      }
    }
  }
  JOINT HipRight
  {
    OFFSET 6.827325 0.252033 -1.434903
    CHANNELS 3 Zrotation Xrotation Yrotation
    JOINT KneeRight
    {
      OFFSET 1.566865 -35.738349 3.794535
      CHANNELS 3 Zrotation Xrotation Yrotation
      JOINT AnkleRight
      {
        OFFSET -0.285673 -37.727543 9.274467
        CHANNELS 3 Zrotation Xrotation Yrotation
        JOINT FootRight
        {
          OFFSET 1.688426 -8.380197 -6.329666
          CHANNELS 3 Zrotation Xrotation Yrotation
          End Site
          {
            OFFSET 0 0 0
          }
        }
      }
    }
  }
}
MOTION
Frames: 5
Frame Time: 0.033333
-50.089731 82.100126 343.792947 0.000000 0.000000 -19.466015 -0.000000 0.000000 19.466015 -0.000000 0.000000 0.000000 -0.000000 0.000000 0.000000 0.000000 0.000000 0.000000 -0.000000 0.000000 0.000000 -0.000000 0.000000 0.000000 -0.000000 0.000000 0.000000 -0.000000 0.000000 0.000000 0.000000 0.000000 0.000000 0.000000 0.000000 0.000000 -0.000000 0.000000 0.000000 -0.000000 0.000000 0.000000 -0.000000 0.000000 0.000000 -0.000000 0.000000 0.000000 0.000000 0.000000 0.000000 0.000000 0.000000 0.000000 -0.000000 0.000000 19.466015 -0.000000 0.000000 0.000000 -0.000000 0.000000 0.000000 0.000000 0.000000 0.000000 -0.000000 0.000000 19.466015 -0.000000 0.000000 0.000000 -0.000000 0.000000 0.000000 0.000000 0.000000 0.000000
-50.065813 82.096709 343.781756 0.013046 0.000745 -19.511294 -0.012048 -0.005059 19.511294 -0.000000 0.000000 0.000000 -0.000000 0.000000 0.000000 0.000000 0.000000 0.000000 -0.000000 0.000000 0.000000 -0.000000 0.000000 0.000000 7.084138 0.994287 17.424945 -2.905286 4.885756 -11.895798 0.000000 0.000000 0.000000 0.000000 0.000000 0.000000 -0.000000 0.000000 0.000000 -0.000000 0.000000 0.000000 0.376152 -0.562132 -0.492576 -0.380988 0.558865 0.496279 0.000000 0.000000 0.000000 0.000000 0.000000 0.000000 -0.012048 -0.005059 19.511294 -0.000000 0.000000 0.000000 -1.584162 -4.398641 -0.086871 0.000000 0.000000 0.000000 -0.012048 -0.005059 19.511294 -0.000000 0.000000 0.000000 0.634412 0.308181 -0.417483 0.000000 0.000000 0.000000
-50.042424 82.093993 343.778360 0.028067 0.000657 -19.552887 -0.026228 -0.010013 19.552885 -0.000000 0.000000 0.000000 -0.000000 0.000000 0.000000 0.000000 0.000000 0.000000 -0.000000 0.000000 0.000000 -0.071607 0.708831 0.686202 12.577847 2.309784 30.351410 -4.703639 8.090920 -22.476296 0.000000 0.000000 0.000000 0.000000 0.000000 0.000000 -0.000000 0.000000 0.000000 -0.000000 0.000000 0.000000 0.757624 -1.077467 -1.099073 -0.778285 1.062640 1.113415 0.000000 0.000000 0.000000 0.000000 0.000000 0.000000 -0.026228 -0.010013 19.552885 -0.000000 0.000000 0.000000 -3.148533 -8.633613 -0.193813 0.000000 0.000000 0.000000 -0.026228 -0.010013 19.552885 -0.000000 0.000000 0.000000 1.274780 0.630891 -0.837429 0.000000 0.000000 0.000000
-50.019565 82.091978 343.782759 0.045061 -0.000262 -19.590804 -0.042540 -0.014862 19.590799 -0.000000 0.000000 0.000000 -0.000000 0.000000 0.000000 0.000000 0.000000 0.000000 -0.000000 0.000000 0.000000 -0.219045 0.927394 1.000214 16.176041 3.897336 38.490769 -5.529138 10.281187 -29.205250 0.000000 0.000000 0.000000 0.000000 0.000000 0.000000 -0.000000 0.000000 0.000000 -0.195203 0.751355 0.705743 1.308487 -2.311342 -2.504022 -1.189819 1.506660 1.846452 0.000000 0.000000 0.000000 0.000000 0.000000 0.000000 -0.042540 -0.014862 19.590799 -0.000000 0.000000 0.000000 -4.608638 -12.463385 -0.276232 0.000000 0.000000 0.000000 -0.042540 -0.014862 19.590799 -0.000000 0.000000 0.000000 1.920444 0.967885 -1.259541 0.000000 0.000000 0.000000
-49.997236 82.090665 343.794953 0.064030 -0.002013 -19.625053 -0.060986 -0.019609 19.625044 -0.000000 0.000000 0.000000 -0.000000 0.000000 0.000000 0.000000 0.000000 0.000000 -0.000000 0.000000 0.000000 -0.439462 1.055200 1.295288 18.501923 4.751685 42.473448 -5.855535 11.831933 -32.353340 0.000000 0.000000 0.000000 0.000000 0.000000 0.000000 -0.000000 0.000000 0.000000 -0.284918 0.913346 1.033269 1.757461 -2.904952 -3.641319 -1.673230 1.823272 3.689975 0.000000 0.000000 0.000000 0.000000 0.000000 0.000000 -0.060986 -0.019609 19.625044 -0.000000 0.000000 0.000000 -5.869440 -15.657876 -0.272103 0.000000 0.000000 0.000000 -0.060986 -0.019609 19.625044 -0.000000 0.000000 0.000000 2.570712 1.318871 -1.683505 0.000000 0.000000 0.000000
